{"title":"S.W.A.T-720p MP4 AAC x264 BRRip 2003-CC","uid":7159093,"size":2181517568,"categoryP":"video","categoryS":"hd___movies","magnet":"?xt=urn:btih:4e53d4abc5e2c68190b3807e02662035a2e9fee0&amp;dn=S.W.A.T-720p+MP4+AAC+x264+BRRip+2003-CC&amp;tr=udp%3A%2F%2Ftracker.openbittorrent.com%3A80&amp;tr=udp%3A%2F%2Fopen.demonii.com%3A1337&amp;tr=udp%3A%2F%2Ftracker.coppersurfer.tk%3A6969&amp;tr=udp%3A%2F%2Fexodus.desync.com%3A6969","seeders":0,"leechers":1,"uploader":"Caveman44","files":-1,"time":1333550887,"description":"Source: Swat 2003 BluRay 1080p DTS dxva-LoNeWolf ( thanks! )\n\nSubs: Arabic, Brazilian, Bulgarian, Chinese, Croatian, Danish, Dutch, English, Greek, Hebrew, Hungarian, Indonesian, Macedonian, Portuguese, Romanian, Servian, Slovenian, Turkish and Vietnamese.\n\nSample and Screens included.\n\nGeneral\nComplete name                    : S.W.A.T-720p MP4 AAC x264 BRRip 2003-CC.mp4\nFormat                           : MPEG-4\nFormat profile                   : Base Media\nCodec ID                         : isom\nFile size                        : 2.01 GiB\nDuration                         : 1h 57mn\nOverall bit rate                 : 2 449 Kbps\nEncoded date                     : UTC 2012-04-03 08:14:35\n\n\nVideo\nID                               : 1\nFormat                           : AVC\nFormat/Info                      : Advanced Video Codec\nFormat profile                   : &lt;a class=&quot;__cf_email__&quot; href=&quot;/cdn-cgi/l/email-protection&quot; data-cfemail=&quot;733b1a141b333f405d42&quot;&gt;[email&amp;#160;protected]&lt;/a&gt;&lt;script cf-hash='f9e31' type=&quot;text/javascript&quot;&gt;\n/* &lt;![CDATA[ */!function(){try{var t=&quot;currentScript&quot;in document?document.currentScript:function(){for(var t=document.getElementsByTagName(&quot;script&quot;),e=t.length;e--;)if(t[e].getAttribute(&quot;cf-hash&quot;))return t[e]}();if(t&amp;&amp;t.previousSibling){var e,r,n,i,c=t.previousSibling,a=c.getAttribute(&quot;data-cfemail&quot;);if(a){for(e=&quot;&quot;,r=parseInt(a.substr(0,2),16),n=2;a.length-n;n+=2)i=parseInt(a.substr(n,2),16)^r,e+=String.fromCharCode(i);e=document.createTextNode(e),c.parentNode.replaceChild(e,c)}}}catch(u){}}();/* ]]&gt; */&lt;/script&gt;\nFormat settings, CABAC           : Yes\nFormat settings, ReFrames        : 5 frames\nCodec ID                         : avc1\nCodec ID/Info                    : Advanced Video Coding\nDuration                         : 1h 57mn\nBit rate mode                    : Variable\nBit rate                         : 2 060 Kbps\nNominal bit rate                 : 2 103 Kbps\nMaximum bit rate                 : 14.2 Mbps\nWidth                            : 1 280 pixels\nHeight                           : 528 pixels\nDisplay aspect ratio             : 2.35:1\nFrame rate mode                  : Variable\nFrame rate                       : 23.976 fps\nMinimum frame rate               : 23.810 fps\nMaximum frame rate               : 24.390 fps\nResolution                       : 24 bits\nColorimetry                      : 4:2:0\nScan type                        : Progressive\nBits/(Pixel*Frame)               : 0.127\nStream size                      : 1.69 GiB (84%)\nWriting library                  : x264 core 112\n\nAudio\nID                               : 2\nFormat                           : AAC\nFormat/Info                      : Advanced Audio Codec\nFormat version                   : Version 4\nFormat profile                   : LC\nFormat settings, SBR             : No\nCodec ID                         : 40\nDuration                         : 1h 57mn\nBit rate mode                    : Variable\nBit rate                         : 384 Kbps\nMaximum bit rate                 : 675 Kbps\nChannel(s)                       : 6 channels\nChannel positions                : Front: L C R, Rear: L R, LFE\nSampling rate                    : 48.0 KHz\nResolution                       : 16 bits\nStream size                      : 322 MiB (16%)","torrent":{"xt":"urn:btih:4e53d4abc5e2c68190b3807e02662035a2e9fee0","amp;dn":"S.W.A.T-720p+MP4+AAC+x264+BRRip+2003-CC","amp;tr":["udp%3A%2F%2Ftracker.openbittorrent.com%3A80","udp%3A%2F%2Fopen.demonii.com%3A1337","udp%3A%2F%2Ftracker.coppersurfer.tk%3A6969","udp%3A%2F%2Fexodus.desync.com%3A6969"],"infoHash":"4e53d4abc5e2c68190b3807e02662035a2e9fee0","infoHashBuffer":{"type":"Buffer","data":[78,83,212,171,197,226,198,129,144,179,128,126,2,102,32,53,162,233,254,224]},"announce":[],"urlList":[]}}